<svg width="22" height="24" viewBox="0 0 22 24" fill="none" xmlns="http://www.w3.org/2000/svg">
<path d="M14.4773 18.6099C14.4773 17.3269 13.6693 16.5809 12.1203 15.2659C11.7703 14.9659 11.3923 14.6479 11.0023 14.2939C10.5573 14.7029 10.1343 15.0629 9.74632 15.3939C8.20032 16.6999 7.52332 17.3389 7.52332 18.6099C7.52332 19.5321 7.88964 20.4165 8.54171 21.0686C9.19377 21.7206 10.0782 22.0869 11.0003 22.0869C11.9225 22.0869 12.8069 21.7206 13.4589 21.0686C14.111 20.4165 14.4773 19.5321 14.4773 18.6099Z" fill="#4888FF" fill-opacity="0.5"/>
<path d="M15.4085 4.035C14.2085 3.016 12.9685 1.963 11.7145 0.71L11.0005 0L10.3005 0.711C8.04654 2.973 6.98054 6.447 6.51854 8.531C6.16403 7.98206 5.90094 7.37922 5.73954 6.746L5.31254 5.109L4.07954 6.266C1.92054 8.294 0.479542 10.305 0.479542 13.525C0.458783 15.8485 1.2151 18.1123 2.62833 19.9568C4.04156 21.8012 6.03064 23.1205 8.27954 23.705C8.84462 23.8482 9.42005 23.9468 10.0005 24C8.74182 23.7654 7.60464 23.0983 6.78567 22.1141C5.96669 21.1299 5.51742 19.8904 5.51554 18.61C5.51554 16.36 6.87254 15.21 8.44354 13.868C9.00454 13.391 9.64354 12.85 10.2885 12.201L11.0005 11.493L11.7085 12.201C12.2845 12.777 12.8605 13.265 13.4175 13.739C14.9935 15.076 16.4815 16.339 16.4815 18.61C16.4799 19.8853 16.0343 21.1203 15.2211 22.1028C14.408 23.0853 13.2781 23.754 12.0255 23.994C14.6261 23.7417 17.0394 22.5298 18.7949 20.5946C20.5503 18.6594 21.5221 16.1398 21.5205 13.527C21.5205 9.225 18.6875 6.82 15.4085 4.035Z" fill="#4888FF" fill-opacity="0.5"/>
</svg>
