<svg width="21" height="20" viewBox="0 0 21 20" fill="none" xmlns="http://www.w3.org/2000/svg">
<g clip-path="url(#clip0_1_2376)">
<path d="M18.2072 6.63066C18.1149 6.41539 17.9031 6.27586 17.6689 6.27586H13.5961L16.3102 0.847979C16.4009 0.666414 16.3913 0.45063 16.2845 0.277894C16.1778 0.105118 15.9891 0 15.786 0L7.62701 0.000468755C7.38743 0.000468755 7.172 0.14633 7.08302 0.368793L3.31735 9.78222C3.24512 9.96273 3.26715 10.1673 3.37618 10.3283C3.48516 10.4893 3.66692 10.5858 3.86138 10.5858H8.64448L5.20022 19.1964C5.09585 19.4573 5.19135 19.7556 5.428 19.9073C5.52515 19.9696 5.63495 20 5.74402 20C5.90027 20 6.05508 19.9376 6.16906 19.8176L18.0937 7.26532C18.2549 7.09551 18.2997 6.8459 18.2072 6.63066Z" fill="#4888FF" fill-opacity="0.5"/>
<path d="M18.2072 6.63066C18.1149 6.41539 17.9031 6.27586 17.6689 6.27586H13.5961L16.3102 0.847979C16.401 0.666414 16.3913 0.45063 16.2845 0.277894C16.1778 0.105118 15.9891 0 15.786 0L10.7651 0.000273441V14.9797L18.0936 7.26544C18.255 7.09551 18.2997 6.8459 18.2072 6.63066Z" fill="#4888FF" fill-opacity="0.5"/>
</g>
<defs>
<clipPath id="clip0_1_2376">
<rect width="20" height="20" fill="white" transform="translate(0.765106)"/>
</clipPath>
</defs>
</svg>
