<svg width="21" height="20" viewBox="0 0 21 20" fill="none" xmlns="http://www.w3.org/2000/svg">
<g clip-path="url(#clip0_2_1313)">
<path d="M16.8284 4.48151C18.2996 6.33942 18.1074 8.96866 18.1074 10.708H20.255C20.255 8.89389 20.29 8.43399 20.1179 7.66541C19.7364 5.95169 18.5659 4.71176 16.8284 4.48151Z" fill="#4888FF" fill-opacity="0.5"/>
<path d="M3.22456 10.708C3.22456 8.86536 3.19969 8.33313 3.3329 7.44492C3.48869 6.40396 3.84727 5.30472 4.50371 4.48196C2.94014 4.66888 1.63078 5.79407 1.21407 7.66495C1.04195 8.4343 1.07704 8.89313 1.07704 10.708H3.22456Z" fill="#4888FF" fill-opacity="0.5"/>
<path d="M4.52204 7.62329C4.40363 8.41354 4.42713 8.86841 4.42713 10.708H6.04639V10.0835C6.04639 8.70025 7.17203 7.57477 8.55524 7.57477H12.7767C14.1599 7.57477 15.2856 8.70025 15.2856 10.0835V10.708H16.9049C16.9049 8.87695 16.9283 8.41446 16.8099 7.62329C16.5985 6.20895 15.8589 4.4519 14.4758 4.4519C6.25696 4.4519 6.76371 4.43756 6.54505 4.48517C5.5543 4.69955 4.77945 5.90164 4.52204 7.62329Z" fill="#4888FF" fill-opacity="0.5"/>
<path d="M15.1424 13.1302H18.6309C18.9631 13.1302 19.2321 13.3997 19.2321 13.7315V18.0785C19.2321 18.4105 18.9629 18.6797 18.6309 18.6797H2.61847C2.28644 18.6797 2.01727 18.4105 2.01727 18.0785V13.7315C2.01727 13.3997 2.28629 13.1302 2.61847 13.1302H6.18948C6.02682 12.6599 6.04636 12.336 6.04636 11.9106H1.07703V19.3326C1.07703 19.6648 1.34619 19.9339 1.67822 19.9339H19.6537C19.9857 19.9339 20.255 19.6648 20.255 19.3326V11.9106H15.2856C15.2856 12.3322 15.3057 12.6581 15.1424 13.1302Z" fill="#4888FF" fill-opacity="0.5"/>
<path d="M3.21985 14.3327V17.4773H3.22458H18.0296V14.3327C16.4677 14.3327 17.412 14.3327 14.2826 14.3327C13.964 14.5821 13.5864 14.7595 13.1744 14.8398C13.1744 16.0767 12.4108 16.7024 11.5411 16.7024H9.71719C8.89795 16.7024 8.08344 16.1357 8.08344 14.8241C7.70029 14.738 7.34918 14.5673 7.05011 14.3327C6.52719 14.3327 3.50626 14.3327 3.21985 14.3327Z" fill="#4888FF" fill-opacity="0.5"/>
<path d="M12.7767 8.77716H8.55521C7.8353 8.77716 7.2489 9.36325 7.2489 10.0835V12.2769C7.2489 13.0148 7.83041 13.6853 8.6846 13.6853C9.01434 13.6853 9.28595 13.9529 9.28595 14.2867V15.069C9.28595 15.3067 9.47913 15.4999 9.71716 15.4999H11.541C11.7786 15.4999 11.9718 15.3067 11.9718 15.069C11.9718 14.6115 11.9718 14.7412 11.9718 14.2867C11.9718 14.0366 12.125 13.822 12.3423 13.7315C12.6076 13.6212 13.2653 13.8234 13.7945 13.1302C14.1215 12.7025 14.083 12.3201 14.083 11.9106C14.083 11.3007 14.083 10.692 14.083 10.0835C14.083 9.36325 13.4966 8.77716 12.7767 8.77716ZM9.65231 11.0992C9.65231 11.4325 9.38177 11.7004 9.05096 11.7004C8.72 11.7004 8.44977 11.4322 8.44977 11.0992C8.44977 10.8376 8.44977 10.6645 8.44977 10.3954C8.44977 10.0635 8.71909 9.79416 9.05096 9.79416C9.38284 9.79416 9.65231 10.0635 9.65231 10.3954V11.0992ZM11.2672 12.9675C11.2672 13.299 10.998 13.5687 10.666 13.5687C10.3341 13.5687 10.0648 13.2993 10.0648 12.9675C10.0648 12.2527 10.0301 12.1181 10.1998 11.9106C10.3097 11.7751 10.478 11.6884 10.666 11.6884C10.9975 11.6884 11.2672 11.9579 11.2672 12.2897V12.9675ZM12.7703 11.3092C12.6853 11.5378 12.4653 11.7004 12.2068 11.7004C11.8757 11.7004 11.6054 11.4322 11.6054 11.0992C11.6054 10.8376 11.6054 10.6645 11.6054 10.3954C11.6054 10.0635 11.8749 9.79416 12.2068 9.79416C12.539 9.79416 12.808 10.0635 12.808 10.3954C12.808 11.1607 12.819 11.1794 12.7703 11.3092Z" fill="#4888FF" fill-opacity="0.5"/>
<path d="M19.9252 1.97052H19.5606V1.60599C19.5606 1.27396 19.2915 1.00479 18.9594 1.00479C18.6274 1.00479 18.3581 1.27396 18.3581 1.60599V1.97052H17.9937C17.6617 1.97052 17.3925 2.23969 17.3925 2.57172C17.3925 2.90375 17.6617 3.17291 17.9937 3.17291H18.3581V3.53745C18.3581 3.86948 18.6274 4.13864 18.9594 4.13864C19.2915 4.13864 19.5606 3.86948 19.5606 3.53745V3.17291H19.9252C20.2572 3.17291 20.5264 2.90375 20.5264 2.57172C20.5264 2.23969 20.2572 1.97052 19.9252 1.97052Z" fill="#4888FF" fill-opacity="0.5"/>
<path d="M14.3617 2.20734H14.7262V2.57172C14.7262 2.90375 14.9954 3.17291 15.3274 3.17291C15.6595 3.17291 15.9286 2.90375 15.9286 2.57172V2.20734H16.2932C16.6252 2.20734 16.8943 1.93802 16.8943 1.60599C16.8943 1.27396 16.6252 1.00479 16.2932 1.00479H15.9286V0.640259C15.9286 0.308228 15.6595 0.0390625 15.3274 0.0390625C14.9954 0.0390625 14.7262 0.308228 14.7262 0.640259V1.00479H14.3617C14.0297 1.00479 13.7605 1.27396 13.7605 1.60599C13.7605 1.93802 14.0297 2.20734 14.3617 2.20734Z" fill="#4888FF" fill-opacity="0.5"/>
<path d="M4.75964 2.20734H5.12418V2.57172C5.12418 2.90375 5.39334 3.17291 5.72537 3.17291C6.0574 3.17291 6.32657 2.90375 6.32657 2.57172V2.20734H6.6911C7.02313 2.20734 7.2923 1.93802 7.2923 1.60599C7.2923 1.27396 7.02313 1.00479 6.6911 1.00479H6.32657V0.640259C6.32657 0.308228 6.0574 0.0390625 5.72537 0.0390625C5.39334 0.0390625 5.12418 0.308228 5.12418 0.640259V1.00479H4.75964C4.42761 1.00479 4.15845 1.27396 4.15845 1.60599C4.15845 1.93802 4.42761 2.20734 4.75964 2.20734Z" fill="#4888FF" fill-opacity="0.5"/>
<path d="M1.4921 3.17291V3.53745C1.4921 3.86948 1.76126 4.13864 2.09329 4.13864C2.42532 4.13864 2.69464 3.86948 2.69464 3.53745V3.17291H3.05902C3.39105 3.17291 3.66022 2.90375 3.66022 2.57172C3.66022 2.23969 3.39105 1.97052 3.05902 1.97052H2.69464V1.60599C2.69464 1.27396 2.42532 1.00479 2.09329 1.00479C1.76126 1.00479 1.4921 1.27396 1.4921 1.60599V1.97052H1.12756C0.795532 1.97052 0.526367 2.23969 0.526367 2.57172C0.526367 2.90375 0.795532 3.17291 1.12756 3.17291H1.4921Z" fill="#4888FF" fill-opacity="0.5"/>
</g>
<defs>
<clipPath id="clip0_2_1313">
<rect width="20" height="20" fill="white" transform="translate(0.526367)"/>
</clipPath>
</defs>
</svg>
