<svg width="21" height="20" viewBox="0 0 21 20" fill="none" xmlns="http://www.w3.org/2000/svg">
<g clip-path="url(#clip0_2_1511)">
<path d="M11.9868 17.1407C12.1482 17.1368 12.286 17.0229 12.32 16.8649C12.3315 16.8071 12.3475 16.7511 12.3621 16.6943C12.3708 16.6603 12.3775 16.6254 12.3876 16.5921C12.3946 16.5675 12.4044 16.5443 12.4119 16.5207C12.6028 15.9229 12.9648 15.3941 13.4533 15H11.3393C11.2922 15.2185 11.2594 15.4353 11.234 15.6519C11.229 15.695 11.2243 15.7382 11.2205 15.7814C11.1994 15.9958 11.1848 16.21 11.1848 16.4285C11.1848 16.5582 11.1933 16.6832 11.2054 16.806C11.2165 16.9096 11.2325 17.0128 11.253 17.1158C11.2546 17.1246 11.2557 17.1339 11.2575 17.1428H11.9718C11.9782 17.1428 11.9822 17.1407 11.9868 17.1407Z" fill="#4888FF" fill-opacity="0.5"/>
<path d="M12.2965 2.03568C12.3072 1.95709 12.3179 1.88217 12.3357 1.8071C12.3429 1.76422 12.3572 1.7215 12.3679 1.67862C12.3858 1.61072 12.4036 1.54282 12.4286 1.47507C12.4419 1.4325 12.4575 1.39084 12.475 1.34995C12.5001 1.28571 12.5251 1.22147 12.5536 1.16074C12.5715 1.12137 12.5928 1.07864 12.6107 1.03928C12.6429 0.978546 12.6786 0.917816 12.7108 0.860748C12.7358 0.821381 12.7572 0.785675 12.7787 0.749969C12.8179 0.68924 12.8643 0.62851 12.9072 0.571442C12.9287 0.539246 12.95 0.510712 12.9751 0.478516C13.0332 0.406189 13.0952 0.337067 13.1608 0.271454C13.1751 0.257111 13.1858 0.24292 13.1965 0.232086C13.2743 0.153656 13.3565 0.0796509 13.4429 0.0106812L13.4536 0H3.32861C1.94785 0 0.828613 1.11923 0.828613 2.5C0.828613 3.88077 1.94785 5 3.32861 5H13.4536C12.6975 4.39026 12.2578 3.47137 12.2571 2.5C12.2571 2.38174 12.2643 2.26379 12.2787 2.14645C12.2822 2.11075 12.2893 2.07138 12.2965 2.03568ZM3.32861 1.42853C2.83957 1.42838 2.41217 1.75873 2.28934 2.23221C2.24997 2.38937 2.10867 2.49985 1.94647 2.5C1.83585 2.50015 1.73148 2.44919 1.66373 2.36176C1.59598 2.27448 1.57233 2.16064 1.6001 2.05353C1.8035 1.26526 2.51456 0.714417 3.32861 0.714264C3.52591 0.714264 3.68582 0.874176 3.68582 1.07147C3.68582 1.26862 3.52591 1.42853 3.32861 1.42853ZM5.82861 1.42853H4.75714C4.56 1.42853 4.40009 1.26862 4.40009 1.07147C4.40009 0.874176 4.56 0.714264 4.75714 0.714264H5.82861C6.02591 0.714264 6.18582 0.874176 6.18582 1.07147C6.18582 1.26862 6.02591 1.42853 5.82861 1.42853Z" fill="#4888FF" fill-opacity="0.5"/>
<path d="M17.7672 18.3757C18.0265 17.8333 18.17 16.9829 17.3821 16.0065C16.9294 15.4002 16.2274 15.0305 15.4714 15C15.39 15 15.3122 15.0136 15.2326 15.0211C15.1647 15.0279 15.0954 15.0282 15.0289 15.0403C14.979 15.0493 14.9326 15.0671 14.8839 15.0793C14.1115 15.2673 13.474 15.8107 13.1661 16.5436C13.1597 16.559 13.1501 16.5721 13.144 16.5875C13.1176 16.6557 13.1021 16.7303 13.0814 16.8018C13.0608 16.8732 13.0342 16.9403 13.0196 17.0139C12.9201 17.4901 12.5084 17.8369 12.0221 17.854C12.0061 17.854 11.9911 17.8583 11.975 17.8583H11.4879C11.7932 18.5072 12.289 19.0479 12.9093 19.4078L12.9172 19.4125C13.0706 19.5032 13.2297 19.5836 13.3936 19.6532C13.4157 19.6625 13.4383 19.67 13.4604 19.6785C13.59 19.7314 13.7239 19.7765 13.8604 19.8167C13.9067 19.8303 13.9528 19.845 13.9997 19.8572C14.1526 19.8967 14.3076 19.928 14.464 19.9507C14.5075 19.9571 14.5511 19.9614 14.5946 19.9667C14.767 19.9878 14.9405 19.9989 15.1143 20C16.2288 19.9835 17.2458 19.361 17.7672 18.3757Z" fill="#4888FF" fill-opacity="0.5"/>
<path d="M4.75714 20H12.4964C11.5194 19.4347 10.8248 18.4846 10.5822 17.3822C10.5678 17.3178 10.5536 17.2536 10.543 17.1893C10.5286 17.1107 10.5143 17.0285 10.5036 16.9464C10.4822 16.7746 10.4716 16.6017 10.4714 16.4285C10.4714 16.2357 10.4822 16.0464 10.4964 15.8536C10.5001 15.7893 10.5071 15.7214 10.5143 15.6572C10.5286 15.5357 10.543 15.4108 10.5643 15.2893C10.575 15.2107 10.5857 15.1286 10.6 15.0464C10.6322 14.8857 10.6679 14.7214 10.7108 14.5535C10.7715 14.3179 10.8393 14.0822 10.925 13.8464C10.7322 14.0321 10.575 14.2 10.4536 14.3358C10.45 14.3393 10.45 14.3428 10.4465 14.3428C10.3965 14.4 10.3501 14.4536 10.3107 14.5C10.3081 14.5053 10.3045 14.5102 10.3 14.5143C10.2643 14.5572 10.2321 14.5964 10.2071 14.6321L10.1893 14.65C10.1679 14.6822 10.1465 14.7072 10.1322 14.7285C10.125 14.7357 10.1215 14.7429 10.1179 14.7464C10.1063 14.7624 10.0956 14.7792 10.0858 14.7964L10.075 14.8071C10.0715 14.8143 10.068 14.8178 10.068 14.8215C10.068 14.825 10.0608 14.8286 10.0608 14.8286C10.0571 14.8354 10.0522 14.8415 10.0464 14.8465C10.0402 14.8566 10.033 14.8662 10.0251 14.875C10.0129 14.8889 9.99976 14.902 9.98572 14.9142C9.98221 14.9179 9.97504 14.9214 9.97153 14.9249C9.96405 14.9321 9.95566 14.9382 9.9465 14.9429C9.9285 14.9545 9.90942 14.9641 9.88928 14.9715C9.88577 14.9715 9.88577 14.975 9.88211 14.975C9.8786 14.975 9.87509 14.9786 9.87143 14.9786C9.86792 14.9786 9.86075 14.9821 9.85358 14.9857C9.82687 14.993 9.79926 14.9966 9.77148 14.9965C9.76797 14.9965 9.7608 15 9.75714 15H9.75363C9.74646 15 9.74646 14.9965 9.73929 14.9965C9.70511 14.9974 9.67108 14.9915 9.63934 14.9786C9.63568 14.9786 9.63568 14.975 9.63217 14.975H9.62866C9.58807 14.9611 9.55145 14.9377 9.52155 14.9071C9.51132 14.8994 9.50278 14.8897 9.49652 14.8785C9.4747 14.8566 9.45654 14.8312 9.44296 14.8036C9.43549 14.7899 9.42938 14.7755 9.42511 14.7607L9.41428 14.7285C9.40726 14.7214 9.40726 14.7107 9.40359 14.7C9.40009 14.6893 9.40726 14.6857 9.40359 14.6822C9.40726 14.6466 9.40833 14.6107 9.40726 14.575C9.57144 12.9959 10.1049 11.4777 10.9643 10.1428C12.3923 7.84271 14.5811 6.11526 17.15 5.26077C17.6678 4.4313 17.9516 3.47748 17.9714 2.5C17.9714 1.11923 16.8522 0 15.4714 0C14.0908 0 12.9714 1.11923 12.9714 2.5C12.9714 3.88077 14.0908 5 15.4714 5C15.6687 5 15.8286 5.15991 15.8286 5.35721C15.8274 5.47562 15.7688 5.58609 15.6714 5.65353C15.6125 5.69382 15.5428 5.71503 15.4714 5.71426H4.51071C4.1564 6.56723 3.72748 7.38708 3.22867 8.16422C3.01794 8.51791 2.80005 8.87863 2.58932 9.2572C1.55692 10.9897 0.960144 12.9469 0.849976 14.9608C0.835785 15.2036 0.828613 15.4572 0.828613 15.7143C0.828613 17.9178 2.73932 20 4.75714 20ZM3.33929 9.55719C3.36096 9.47052 3.41452 9.39529 3.48929 9.34647L4.18219 8.88214C4.53024 8.64975 4.98404 8.64975 5.33224 8.88214L5.65009 9.09286C5.7572 9.16794 5.90002 9.16794 6.00714 9.09286L6.32498 8.88214C6.67319 8.64975 7.12698 8.64975 7.47504 8.88214L7.79288 9.09286C7.90015 9.16794 8.04282 9.16794 8.15009 9.09286L8.46793 8.88214C8.81598 8.64975 9.26978 8.64975 9.61783 8.88214L10.3107 9.34647C10.4587 9.4426 10.5123 9.63379 10.4357 9.79279C10.4288 9.80911 10.4204 9.82452 10.4108 9.83932C10.3451 9.93912 10.2338 9.99939 10.1143 10C10.0442 10.0008 9.97534 9.97955 9.91797 9.93927L9.22141 9.47861C9.11429 9.40353 8.97162 9.40353 8.86435 9.47861L8.54651 9.68933C8.1983 9.92172 7.74466 9.92172 7.39645 9.68933L7.07861 9.47861C6.97134 9.40353 6.82867 9.40353 6.72141 9.47861L6.40356 9.68933C6.05551 9.92172 5.60172 9.92172 5.25366 9.68933L4.93582 9.47861C4.82855 9.40353 4.68588 9.40353 4.57861 9.47861L3.8822 9.93927C3.80377 9.99191 3.70749 10.011 3.61487 9.99222C3.52225 9.97345 3.44107 9.91837 3.38934 9.83932C3.33472 9.75601 3.31656 9.65408 3.33929 9.55719ZM2.41797 11.8465L3.11072 11.3821C3.45892 11.1497 3.91257 11.1497 4.26077 11.3821L4.57861 11.5929C4.68588 11.6679 4.82855 11.6679 4.93582 11.5929L5.25366 11.3821C5.60172 11.1497 6.05551 11.1497 6.40356 11.3821L6.72141 11.5929C6.82867 11.6679 6.97134 11.6679 7.07861 11.5929L7.39645 11.3821C7.74466 11.1497 8.1983 11.1497 8.54651 11.3821L9.23926 11.8465C9.36926 11.9337 9.42725 12.0956 9.38223 12.2456C9.33707 12.3956 9.19958 12.4988 9.04288 12.5C8.97269 12.5008 8.90402 12.4796 8.8465 12.4393L8.15009 11.9786C8.04282 11.9035 7.90015 11.9035 7.79288 11.9786L7.47504 12.1893C7.12698 12.4217 6.67319 12.4217 6.32498 12.1893L6.00714 11.9786C5.90002 11.9035 5.7572 11.9035 5.65009 11.9786L5.33224 12.1893C4.98404 12.4217 4.53024 12.4217 4.18219 12.1893L3.86435 11.9786C3.75708 11.9035 3.61441 11.9035 3.50714 11.9786L2.81073 12.4393C2.70514 12.5243 2.56064 12.5423 2.4375 12.4857C2.31436 12.429 2.23395 12.3076 2.22968 12.1721C2.22556 12.0366 2.29849 11.9106 2.41797 11.8465ZM1.70355 14.7035L2.39645 14.2393C2.74466 14.007 3.1983 14.007 3.54651 14.2393L3.86435 14.4501C3.97162 14.525 4.11429 14.525 4.22141 14.4501L4.5394 14.2393C4.88745 14.007 5.34125 14.007 5.6893 14.2393L6.00714 14.4501C6.11441 14.525 6.25708 14.525 6.36435 14.4501L6.68219 14.2393C7.03024 14.007 7.48404 14.007 7.83224 14.2393L8.52499 14.7035C8.55002 14.7197 8.57275 14.7389 8.5929 14.7607C8.68735 14.8654 8.71146 15.0159 8.65424 15.1447C8.59717 15.2736 8.4696 15.3568 8.32861 15.3572C8.25842 15.358 8.18976 15.3368 8.13223 15.2965L7.43582 14.8357C7.32855 14.7607 7.18588 14.7607 7.07861 14.8357L6.76077 15.0464C6.41257 15.2788 5.95892 15.2788 5.61072 15.0464L5.29288 14.8357C5.18561 14.7607 5.04294 14.7607 4.93582 14.8357L4.61783 15.0464C4.26978 15.2788 3.81598 15.2788 3.46793 15.0464L3.15009 14.8357C3.04282 14.7607 2.90015 14.7607 2.79288 14.8357L2.09647 15.2965C2.01804 15.3493 1.92175 15.3685 1.82913 15.3496C1.73651 15.3308 1.65518 15.2756 1.60361 15.1964C1.56485 15.1382 1.54379 15.0699 1.54288 15C1.54349 14.8805 1.60376 14.7693 1.70355 14.7035Z" fill="#4888FF" fill-opacity="0.5"/>
<path d="M10.3643 12.7357C11.6536 10.7571 14.4536 7.57858 20.0179 5.40359C14.0178 5.89996 11.4 10.1785 10.3643 12.7357Z" fill="#4888FF" fill-opacity="0.5"/>
<path d="M20.7465 5.89645C14.5429 8.18924 11.7643 11.7357 10.6786 13.5786C12.0229 12.3311 13.5121 11.2495 15.1143 10.3572C17.2145 9.17572 19.1153 7.67029 20.7465 5.89645Z" fill="#4888FF" fill-opacity="0.5"/>
</g>
<defs>
<clipPath id="clip0_2_1511">
<rect width="20" height="20" fill="white" transform="translate(0.789551)"/>
</clipPath>
</defs>
</svg>
